<mxfile host="app.diagrams.net" modified="2022-10-31T08:09:38.289Z" agent="5.0 (Windows NT 10.0; Win64; x64) AppleWebKit/537.36 (KHTML, like Gecko) Chrome/107.0.0.0 Safari/537.36" etag="6h7oeyeWKtt5fY8Ar63k" version="20.5.1" type="github">
  <diagram id="WOFum6Nq7Ovry6Pa4XIM" name="第 1 页">
    <mxGraphModel dx="1095" dy="612" grid="0" gridSize="10" guides="1" tooltips="1" connect="1" arrows="1" fold="1" page="1" pageScale="1" pageWidth="827" pageHeight="1169" math="0" shadow="0">
      <root>
        <mxCell id="0" />
        <mxCell id="1" parent="0" />
        <mxCell id="xm73yK2w3v8nbsvUyf9k-1" value="" style="shape=flexArrow;endArrow=classic;html=1;rounded=0;" edge="1" parent="1">
          <mxGeometry width="50" height="50" relative="1" as="geometry">
            <mxPoint x="130" y="366" as="sourcePoint" />
            <mxPoint x="240" y="366" as="targetPoint" />
          </mxGeometry>
        </mxCell>
        <mxCell id="xm73yK2w3v8nbsvUyf9k-2" value="无广告" style="text;html=1;align=center;verticalAlign=middle;resizable=0;points=[];autosize=1;strokeColor=none;fillColor=none;" vertex="1" parent="1">
          <mxGeometry x="150" y="334" width="60" height="30" as="geometry" />
        </mxCell>
        <mxCell id="xm73yK2w3v8nbsvUyf9k-3" value="&lt;font style=&quot;font-size: 14px;&quot;&gt;前置&lt;/font&gt;" style="text;html=1;align=center;verticalAlign=middle;resizable=0;points=[];autosize=1;strokeColor=none;fillColor=none;" vertex="1" parent="1">
          <mxGeometry x="236" y="350" width="50" height="30" as="geometry" />
        </mxCell>
        <mxCell id="xm73yK2w3v8nbsvUyf9k-4" value="" style="shape=flexArrow;endArrow=classic;html=1;rounded=0;" edge="1" parent="1">
          <mxGeometry width="50" height="50" relative="1" as="geometry">
            <mxPoint x="294" y="366" as="sourcePoint" />
            <mxPoint x="404" y="366" as="targetPoint" />
          </mxGeometry>
        </mxCell>
        <mxCell id="xm73yK2w3v8nbsvUyf9k-5" value="" style="shape=flexArrow;endArrow=classic;html=1;rounded=0;" edge="1" parent="1">
          <mxGeometry width="50" height="50" relative="1" as="geometry">
            <mxPoint x="450" y="365" as="sourcePoint" />
            <mxPoint x="560" y="365" as="targetPoint" />
          </mxGeometry>
        </mxCell>
        <mxCell id="xm73yK2w3v8nbsvUyf9k-6" value="有广告但未预测" style="text;html=1;align=center;verticalAlign=middle;resizable=0;points=[];autosize=1;strokeColor=none;fillColor=none;" vertex="1" parent="1">
          <mxGeometry x="283" y="332" width="110" height="30" as="geometry" />
        </mxCell>
        <mxCell id="xm73yK2w3v8nbsvUyf9k-7" value="&lt;font style=&quot;font-size: 14px;&quot;&gt;中置&lt;/font&gt;" style="text;html=1;align=center;verticalAlign=middle;resizable=0;points=[];autosize=1;strokeColor=none;fillColor=none;" vertex="1" parent="1">
          <mxGeometry x="397" y="349" width="50" height="30" as="geometry" />
        </mxCell>
        <mxCell id="xm73yK2w3v8nbsvUyf9k-8" value="有广告且已预测" style="text;html=1;align=center;verticalAlign=middle;resizable=0;points=[];autosize=1;strokeColor=none;fillColor=none;" vertex="1" parent="1">
          <mxGeometry x="439" y="334" width="110" height="30" as="geometry" />
        </mxCell>
        <mxCell id="xm73yK2w3v8nbsvUyf9k-9" value="&lt;font style=&quot;font-size: 14px;&quot;&gt;后置&lt;/font&gt;" style="text;html=1;align=center;verticalAlign=middle;resizable=0;points=[];autosize=1;strokeColor=none;fillColor=none;" vertex="1" parent="1">
          <mxGeometry x="556" y="349" width="50" height="30" as="geometry" />
        </mxCell>
      </root>
    </mxGraphModel>
  </diagram>
</mxfile>
